<?xml version="1.0" standalone="no"?>
<!DOCTYPE svg PUBLIC "-//W3C//DTD SVG 20010904//EN"
 "http://www.w3.org/TR/2001/REC-SVG-20010904/DTD/svg10.dtd">
<svg version="1.0" xmlns="http://www.w3.org/2000/svg"
 width="400.000000pt" height="400.000000pt" viewBox="0 0 400.000000 400.000000"
 preserveAspectRatio="xMidYMid meet">

<g transform="translate(0.000000,400.000000) scale(0.100000,-0.100000)"
fill="#fff" stroke="none">
<path d="M1930 3519 c-19 -5 -78 -11 -130 -13 -140 -7 -324 -74 -556 -203
-158 -88 -372 -278 -435 -384 -21 -37 -43 -71 -48 -74 -15 -9 -98 -139 -116
-181 -45 -107 -118 -360 -134 -464 -6 -36 -9 -123 -9 -195 1 -101 3 -117 8
-70 6 57 7 55 8 -33 2 -105 29 -312 43 -326 5 -6 9 -18 9 -29 0 -10 4 -16 9
-13 5 4 7 -4 3 -16 -4 -15 -2 -19 7 -13 10 5 11 2 6 -14 -3 -11 -3 -21 2 -21
5 0 15 -21 23 -47 7 -27 27 -69 44 -95 17 -26 56 -88 86 -138 42 -70 89 -127
195 -235 77 -79 165 -159 195 -179 30 -19 74 -49 98 -66 93 -66 205 -110 366
-145 111 -24 167 -29 361 -30 190 0 295 9 336 31 16 8 38 14 51 14 19 0 20 2
8 10 -11 8 -8 9 13 4 16 -4 27 -2 27 5 0 6 6 8 13 5 16 -6 169 71 159 80 -3 4
1 4 11 1 10 -4 35 4 64 21 27 16 54 27 62 26 7 -2 10 1 7 6 -3 5 51 52 120
103 145 107 238 203 329 339 102 153 121 194 185 393 27 85 43 217 27 233 -4
4 -7 12 -7 18 0 6 5 4 10 -4 8 -13 10 -13 10 2 0 9 -6 19 -12 21 -10 4 -10 6
-1 6 7 1 10 7 7 15 -3 8 -1 17 5 21 6 3 12 0 12 -7 3 -26 17 109 18 177 1 50
4 66 11 55 6 -8 8 -35 5 -60 -2 -25 -7 -83 -11 -130 -7 -109 -29 -257 -44
-295 -7 -19 -7 -26 -1 -20 14 14 51 159 51 199 1 26 2 28 11 13 6 -9 14 -15
18 -13 4 3 5 -9 3 -27 -4 -28 -6 -30 -14 -12 -6 14 -7 8 -3 -20 3 -28 2 -36
-5 -25 -7 11 -10 6 -9 -20 0 -19 -2 -46 -4 -60 -2 -14 -5 -31 -6 -38 0 -7 -6
-10 -13 -6 -8 5 -9 0 -6 -14 4 -14 2 -20 -5 -15 -6 4 -8 0 -4 -9 3 -9 -1 -27
-8 -41 -7 -14 -23 -51 -35 -83 -29 -79 -117 -227 -188 -316 -77 -96 -204 -228
-195 -203 5 14 -7 8 -43 -21 -27 -22 -72 -59 -101 -81 -29 -22 -49 -43 -45
-47 3 -4 -2 -4 -12 0 -15 6 -17 4 -11 -7 4 -8 5 -11 0 -7 -4 4 -16 -4 -27 -17
-10 -13 -27 -27 -38 -30 -11 -4 -18 -11 -15 -16 4 -5 -2 -6 -12 -2 -10 3 -15
2 -11 -2 9 -9 -39 -32 -167 -80 -84 -31 -274 -86 -302 -88 -7 0 -13 -3 -13 -6
0 -3 -12 -6 -27 -7 -16 0 -41 -4 -58 -9 -16 -4 -59 -11 -95 -14 l-65 -7 89 -8
c49 -5 119 -6 155 -2 89 8 237 34 259 45 9 5 60 24 112 42 155 52 289 125 387
208 23 20 67 56 97 81 31 25 77 71 102 103 26 31 51 57 56 57 4 0 8 5 8 11 0
5 -5 7 -12 3 -7 -4 -8 -3 -4 5 4 6 11 9 16 6 9 -5 56 60 58 78 0 5 9 15 19 24
10 8 11 11 3 7 -13 -6 -13 -5 1 12 43 53 137 278 183 439 23 82 54 350 42 363
-5 5 -14 -45 -19 -98 -1 -19 -3 37 -3 125 -1 168 1 153 -72 410 -3 11 -12 31
-20 45 -13 23 -13 21 -7 -30 8 -67 -5 -57 -30 23 -9 32 -19 56 -21 54 -2 -2 3
-26 11 -53 8 -27 15 -61 15 -76 0 -15 5 -30 10 -33 16 -10 10 -433 -6 -530
-21 -118 -23 -126 -35 -119 -8 4 -9 -1 -4 -16 4 -13 3 -20 -2 -17 -5 3 -22
-29 -38 -71 -102 -274 -227 -440 -478 -635 -34 -26 -71 -52 -82 -58 -11 -5
-38 -21 -60 -34 -174 -109 -428 -170 -674 -162 -134 5 -162 8 -191 20 -8 3
-31 8 -50 10 -49 7 -70 12 -126 35 -27 11 -80 32 -119 48 -102 41 -192 92
-260 147 -91 74 -228 211 -260 259 -15 24 -36 54 -45 68 -38 56 -119 220 -145
290 -14 41 -31 84 -36 95 -22 50 -41 251 -35 365 10 179 26 214 21 45 -3 -77
-1 -158 4 -180 7 -31 9 -12 10 87 0 69 6 150 12 180 62 301 82 346 246 575 90
125 274 308 300 299 7 -3 15 0 19 6 5 7 2 8 -7 4 -8 -4 -3 2 11 13 14 12 52
35 85 52 33 16 51 23 41 14 -28 -21 -16 -19 46 10 29 14 63 25 76 25 12 0 48
9 80 19 31 10 78 21 105 24 26 3 51 8 56 11 28 18 183 34 251 26 146 -16 372
-69 445 -105 81 -39 132 -54 121 -37 -9 16 21 5 56 -20 15 -11 37 -20 47 -21
11 -1 18 -3 16 -6 -7 -6 15 -31 27 -31 6 0 4 8 -3 18 -13 15 -12 16 3 4 10 -8
16 -17 15 -21 -1 -4 20 -33 47 -64 34 -40 54 -56 66 -52 11 4 45 -24 111 -90
97 -97 131 -116 127 -70 -1 14 -5 25 -9 25 -8 0 -52 99 -52 118 0 6 -4 12 -9
12 -5 0 -6 5 -3 10 3 6 1 10 -5 10 -6 0 -8 4 -5 10 3 6 22 0 44 -15 22 -13 42
-21 45 -18 3 4 6 2 6 -4 0 -9 104 -86 120 -89 3 0 18 -6 33 -12 38 -16 45 -15
21 2 -17 13 -16 14 21 13 22 -1 46 2 53 7 16 10 16 46 -1 46 -15 0 -40 37 -32
49 2 5 -3 15 -13 22 -16 13 -16 13 -2 -6 14 -19 14 -19 -3 -6 -10 8 -16 20
-13 28 3 8 2 12 -3 9 -12 -8 -94 102 -95 128 -1 12 -8 20 -15 18 -7 -1 -9 2
-6 9 12 18 -93 107 -170 144 -40 18 -111 42 -158 52 -55 11 -82 20 -74 26 7 5
3 7 -12 3 -14 -3 -43 4 -67 15 -24 10 -46 19 -49 19 -3 0 -31 12 -61 26 -30
14 -60 27 -67 28 -7 1 -16 4 -22 8 -13 8 -119 36 -225 59 l-85 18 75 -3 c59
-3 68 -2 45 6 -16 5 -104 13 -195 17 -91 4 -172 10 -180 13 -8 3 -31 2 -50 -3z
m570 -330 c61 -23 109 -44 106 -46 -6 -6 -195 54 -226 72 -49 28 8 16 120 -26z
m-1270 -132 c0 -2 -19 -21 -42 -42 -29 -27 -35 -30 -18 -10 31 36 60 62 60 52z
m-208 -214 c-11 -16 -30 -37 -43 -48 l-24 -20 20 25 c52 67 85 96 47 43z
m2377 -578 c1 -16 -1 -17 -9 -5 -5 8 -9 31 -9 50 l1 35 8 -30 c4 -16 8 -39 9
-50z m-32 -497 c-3 -8 -6 -5 -6 6 -1 11 2 17 5 13 3 -3 4 -12 1 -19z m-2513
-484 c3 -8 2 -12 -4 -9 -6 3 -10 10 -10 16 0 14 7 11 14 -7z m2186 -367 c0 -2
-12 -14 -27 -28 l-28 -24 24 28 c23 25 31 32 31 24z m-72 -69 c-7 -13 -11 -27
-10 -33 1 -5 -24 -28 -55 -50 -31 -22 -68 -51 -82 -65 -13 -14 -21 -18 -16
-10 4 8 -1 5 -13 -7 -41 -42 -320 -153 -385 -153 -36 0 -31 9 9 16 16 3 33 9
39 14 6 5 33 16 60 25 28 9 64 22 80 30 17 7 41 16 55 19 44 12 124 56 160 87
23 20 26 25 9 15 -14 -9 -28 -13 -32 -10 -4 4 34 33 83 65 49 33 92 64 95 69
12 20 15 9 3 -12z"/>
<path d="M2895 789 c-51 -39 -57 -46 -19 -24 42 24 81 55 69 54 -5 0 -28 -14
-50 -30z"/>
<path d="M2133 3523 c9 -2 25 -2 35 0 9 3 1 5 -18 5 -19 0 -27 -2 -17 -5z"/>
<path d="M1404 3074 c-18 -14 -18 -15 4 -4 12 6 22 13 22 15 0 8 -5 6 -26 -11z"/>
<path d="M3396 2867 c3 -10 9 -15 12 -12 3 3 0 11 -7 18 -10 9 -11 8 -5 -6z"/>
<path d="M3126 2787 c3 -10 9 -15 12 -12 3 3 0 11 -7 18 -10 9 -11 8 -5 -6z"/>
<path d="M3300 2525 c0 -5 5 -17 10 -25 5 -8 10 -10 10 -5 0 6 -5 17 -10 25
-5 8 -10 11 -10 5z"/>
<path d="M2994 958 l-29 -33 33 29 c30 28 37 36 29 36 -2 0 -16 -15 -33 -32z"/>
</g>
</svg>
